<?xml version="1.0" encoding="utf-8"?>
<!-- Generator: Adobe Illustrator 22.0.1, SVG Export Plug-In . SVG Version: 6.00 Build 0)  -->
<svg version="1.1" id="Слой_1" xmlns="http://www.w3.org/2000/svg" xmlns:xlink="http://www.w3.org/1999/xlink" x="0px" y="0px"
	 viewBox="0 0 1892.8 540.4" style="enable-background:new 0 0 1892.8 540.4;" xml:space="preserve">
<style type="text/css">
	.st0{fill:#EE1787;stroke:#F8F7F7;stroke-width:3;stroke-miterlimit:10;}
	.st1{fill:#E91C8B;stroke:#F8F7F7;stroke-width:2.9926;stroke-miterlimit:10;}
	.st2{fill:#E3248F;stroke:#F8F7F7;stroke-width:2.9851;stroke-miterlimit:10;}
	.st3{fill:#DD2B92;stroke:#F8F7F7;stroke-width:2.9777;stroke-miterlimit:10;}
	.st4{fill:#D73195;stroke:#F8F7F7;stroke-width:2.9702;stroke-miterlimit:10;}
	.st5{fill:#D13799;stroke:#F8F7F7;stroke-width:2.9628;stroke-miterlimit:10;}
	.st6{fill:#CB3E9C;stroke:#F8F7F7;stroke-width:2.9553;stroke-miterlimit:10;}
	.st7{fill:#C5449F;stroke:#F8F7F7;stroke-width:2.9479;stroke-miterlimit:10;}
	.st8{fill:#BF4AA2;stroke:#F8F7F7;stroke-width:2.9404;stroke-miterlimit:10;}
	.st9{fill:#B950A4;stroke:#F8F7F7;stroke-width:2.933;stroke-miterlimit:10;}
	.st10{fill:#B356A7;stroke:#F8F7F7;stroke-width:2.9256;stroke-miterlimit:10;}
	.st11{fill:#AD5CAA;stroke:#F8F7F7;stroke-width:2.9181;stroke-miterlimit:10;}
	.st12{fill:#A661AD;stroke:#F8F7F7;stroke-width:2.9107;stroke-miterlimit:10;}
	.st13{fill:#A066AF;stroke:#F8F7F7;stroke-width:2.9032;stroke-miterlimit:10;}
	.st14{fill:#9A6CB1;stroke:#F8F7F7;stroke-width:2.8958;stroke-miterlimit:10;}
	.st15{fill:#9371B4;stroke:#F8F7F7;stroke-width:2.8883;stroke-miterlimit:10;}
	.st16{fill:#8D76B6;stroke:#F8F7F7;stroke-width:2.8809;stroke-miterlimit:10;}
	.st17{fill:#867AB8;stroke:#F8F7F7;stroke-width:2.8734;stroke-miterlimit:10;}
	.st18{fill:#807FBA;stroke:#F8F7F7;stroke-width:2.866;stroke-miterlimit:10;}
	.st19{fill:#7983BC;stroke:#F8F7F7;stroke-width:2.8586;stroke-miterlimit:10;}
	.st20{fill:#7288BE;stroke:#F8F7F7;stroke-width:2.8511;stroke-miterlimit:10;}
	.st21{fill:#6B8CC0;stroke:#F8F7F7;stroke-width:2.8437;stroke-miterlimit:10;}
	.st22{fill:#6590C2;stroke:#F8F7F7;stroke-width:2.8362;stroke-miterlimit:10;}
	.st23{fill:#5E94C3;stroke:#F8F7F7;stroke-width:2.8288;stroke-miterlimit:10;}
	.st24{fill:#5797C5;stroke:#F8F7F7;stroke-width:2.8213;stroke-miterlimit:10;}
	.st25{fill:#509BC6;stroke:#F8F7F7;stroke-width:2.8139;stroke-miterlimit:10;}
	.st26{fill:#499EC8;stroke:#F8F7F7;stroke-width:2.8065;stroke-miterlimit:10;}
	.st27{fill:#42A2C9;stroke:#F8F7F7;stroke-width:2.799;stroke-miterlimit:10;}
	.st28{fill:#3BA5CA;stroke:#F8F7F7;stroke-width:2.7916;stroke-miterlimit:10;}
	.st29{fill:#33A8CB;stroke:#F8F7F7;stroke-width:2.7841;stroke-miterlimit:10;}
	.st30{fill:#2DAACC;stroke:#F8F7F7;stroke-width:2.7767;stroke-miterlimit:10;}
	.st31{fill:#26ADCD;stroke:#F8F7F7;stroke-width:2.7692;stroke-miterlimit:10;}
</style>
<g>
	<path class="st0" d="M1797.9,488.2l-82.3-236c-13.7-39.3,7.3-82.7,46.6-96.4l485.6-169.3c39.3-13.7,82.7,7.3,96.4,46.6l82.3,236
		c13.7,39.3-7.3,82.7-46.6,96.4l-485.7,169.3C1855,548.4,1811.6,527.4,1797.9,488.2z"/>
	<path class="st1" d="M1742.7,473.8l-82.3-236c-13.7-39.3,7.3-82.7,46.6-96.4l485.6-169.3c39.3-13.7,82.7,7.3,96.4,46.6l82.3,236
		c13.7,39.3-7.3,82.7-46.6,96.4L1839,520.4C1799.8,534.1,1756.5,513.2,1742.7,473.8z"/>
	<path class="st2" d="M1687.6,459.6l-82.3-236c-13.7-39.3,7.3-82.7,46.6-96.4l485.6-169.3c39.3-13.7,82.7,7.3,96.4,46.6l82.3,236
		c13.7,39.3-7.3,82.7-46.6,96.4L1784,506.2C1744.6,519.9,1701.3,499,1687.6,459.6z"/>
	<path class="st3" d="M1632.4,445.4l-82.3-236c-13.7-39.3,7.3-82.7,46.6-96.4l485.6-169.3c39.3-13.7,82.7,7.3,96.4,46.6l82.3,236
		c13.7,39.3-7.3,82.7-46.6,96.4l-485.7,169.3C1689.4,505.6,1646.1,484.6,1632.4,445.4z"/>
	<path class="st4" d="M1577.3,431.1l-82.3-236c-13.7-39.3,7.3-82.7,46.6-96.4l485.6-169.3c39.3-13.7,82.7,7.3,96.4,46.6l82.3,236
		c13.7,39.3-7.3,82.7-46.6,96.4l-485.7,169.3C1634.3,491.4,1591,470.4,1577.3,431.1z"/>
	<path class="st5" d="M1522.1,416.8l-82.3-236c-13.7-39.3,7.3-82.7,46.6-96.4L1972-84.9c39.3-13.7,82.7,7.3,96.4,46.6l82.3,236
		c13.7,39.3-7.3,82.7-46.6,96.4l-485.7,169.3C1579.2,477,1535.8,456.2,1522.1,416.8z"/>
	<path class="st6" d="M1466.9,402.6l-82.3-236c-13.7-39.3,7.3-82.7,46.6-96.4l485.7-169.3c39.3-13.7,82.7,7.3,96.4,46.6l82.3,236
		c13.7,39.3-7.3,82.7-46.6,96.4l-485.7,169.3C1524,462.8,1480.6,441.8,1466.9,402.6z"/>
	<path class="st7" d="M1411.7,388.3l-82.3-236c-13.7-39.3,7.3-82.7,46.6-96.4l485.7-169.3c39.3-13.7,82.7,7.3,96.4,46.6l82.3,236
		c13.7,39.3-7.3,82.7-46.6,96.4l-485.7,169.3C1468.9,448.6,1425.4,427.6,1411.7,388.3z"/>
	<path class="st8" d="M1356.6,374.1L1274.3,138c-13.7-39.3,7.3-82.7,46.6-96.4l485.7-169.3c39.3-13.7,82.7,7.3,96.4,46.6l82.3,236
		c13.7,39.3-7.3,82.7-46.6,96.4L1453,420.6C1413.7,434.3,1370.3,413.4,1356.6,374.1z"/>
	<path class="st9" d="M1301.4,359.8l-82.3-236c-13.7-39.3,7.3-82.7,46.6-96.4L1751.4-142c39.3-13.7,82.7,7.3,96.4,46.6l82.3,236
		c13.7,39.3-7.3,82.7-46.6,96.4l-485.7,169.3C1358.5,420,1315.1,399.1,1301.4,359.8z"/>
	<path class="st10" d="M1246.2,345.5l-82.3-236c-13.7-39.3,7.3-82.7,46.6-96.4l485.7-169.3c39.3-13.7,82.7,7.3,96.4,46.6l82.3,236
		c13.7,39.3-7.3,82.7-46.6,96.4l-485.7,169.3C1303.3,405.8,1259.9,384.8,1246.2,345.5z"/>
	<path class="st11" d="M1191.1,331.3l-82.3-236c-13.7-39.3,7.3-82.7,46.6-96.4l485.7-169.3c39.3-13.7,82.7,7.3,96.4,46.6l82.3,236
		c13.7,39.3-7.3,82.7-46.6,96.4l-485.7,169.3C1248.2,391.5,1204.8,370.6,1191.1,331.3z"/>
	<path class="st12" d="M1135.9,317.1L1053.6,81c-13.7-39.3,7.3-82.7,46.6-96.4l485.7-169.3c39.3-13.7,82.7,7.3,96.4,46.6l82.3,236
		c13.7,39.3-7.3,82.7-46.6,96.4l-485.7,169.3C1193,377.2,1149.6,356.3,1135.9,317.1z"/>
	<path class="st13" d="M1080.7,302.7l-82.3-236c-13.7-39.3,7.3-82.7,46.6-96.4L1530.7-199c39.3-13.7,82.7,7.3,96.4,46.6l82.3,236
		c13.7,39.3-7.3,82.7-46.6,96.4l-485.7,169.3C1137.8,363,1094.4,342.1,1080.7,302.7z"/>
	<path class="st14" d="M1025.6,288.5l-82.3-236c-13.7-39.3,7.3-82.7,46.6-96.4l485.7-169.3c39.3-13.7,82.7,7.3,96.4,46.6l82.3,236
		c13.7,39.3-7.3,82.7-46.6,96.4L1122,335.1C1082.7,348.7,1039.2,327.8,1025.6,288.5z"/>
	<path class="st15" d="M970.5,274.2l-82.3-236c-13.7-39.3,7.3-82.7,46.6-96.4l485.7-169.3c39.3-13.7,82.7,7.3,96.4,46.6l82.3,236
		c13.7,39.3-7.3,82.7-46.6,96.4l-485.7,169.3C1027.5,334.5,984.2,313.5,970.5,274.2z"/>
	<path class="st16" d="M915.3,259.9L833,23.9c-13.7-39.3,7.3-82.7,46.6-96.4l485.7-169.3c39.3-13.7,82.7,7.3,96.4,46.6l82.3,236
		c13.7,39.3-7.3,82.7-46.6,96.4l-485.7,169.3C972.3,320.2,929,299.3,915.3,259.9z"/>
	<path class="st17" d="M860.1,245.7l-82.3-236c-13.7-39.3,7.3-82.7,46.6-96.4L1310.2-256c39.3-13.7,82.7,7.3,96.4,46.6l82.3,236
		c13.7,39.3-7.3,82.7-46.6,96.4L956.5,292.2C917.2,306,873.9,285,860.1,245.7z"/>
	<path class="st18" d="M805,231.4l-82.3-236c-13.7-39.3,7.3-82.7,46.6-96.4l485.6-169.3c39.3-13.7,82.7,7.3,96.4,46.6l82.3,236
		c13.7,39.3-7.3,82.7-46.6,96.4L901.3,278C862,291.7,818.7,270.7,805,231.4z"/>
	<path class="st19" d="M749.8,217.2l-82.3-236c-13.7-39.3,7.3-82.7,46.6-96.4l485.7-169.3c39.3-13.7,82.7,7.3,96.4,46.6l82.3,236
		c13.7,39.3-7.3,82.7-46.6,96.4L846.2,263.8C806.8,277.5,763.5,256.5,749.8,217.2z"/>
	<path class="st20" d="M694.6,202.9l-82.3-236c-13.7-39.3,7.3-82.7,46.6-96.4l485.7-169.3c39.3-13.7,82.7,7.3,96.4,46.6l82.3,236
		c13.7,39.3-7.3,82.7-46.6,96.4L791,249.4C751.7,263.1,708.3,242.2,694.6,202.9z"/>
	<path class="st21" d="M639.5,188.6l-82.3-236c-13.7-39.3,7.3-82.7,46.6-96.4l485.7-169.3c39.3-13.7,82.7,7.3,96.4,46.6l82.3,236
		c13.7,39.3-7.3,82.7-46.6,96.4L735.9,235.2C696.6,248.9,653.2,227.9,639.5,188.6z"/>
	<path class="st22" d="M584.3,174.4L502-61.6c-13.7-39.3,7.3-82.7,46.6-96.4l485.7-169.3c39.3-13.7,82.7,7.3,96.4,46.6l82.3,236
		c13.7,39.3-7.3,82.7-46.6,96.4L680.7,221C641.4,234.7,598,213.7,584.3,174.4z"/>
	<path class="st23" d="M529.1,160.2L446.8-75.9c-13.7-39.3,7.3-82.7,46.6-96.4l485.7-169.3c39.3-13.7,82.7,7.3,96.4,46.6l82.3,236
		c13.7,39.3-7.3,82.7-46.6,96.4L625.5,206.6C586.3,220.4,542.8,199.4,529.1,160.2z"/>
	<path class="st24" d="M473.9,145.8l-82.3-236c-13.7-39.3,7.3-82.7,46.6-96.4L924-355.9c39.3-13.7,82.7,7.3,96.4,46.6l82.3,236
		c13.7,39.3-7.3,82.7-46.6,96.4L570.3,192.4C531.1,206.1,487.7,185.2,473.9,145.8z"/>
	<path class="st25" d="M418.8,131.6l-82.3-236c-13.7-39.3,7.3-82.7,46.6-96.4l485.7-169.3c39.3-13.7,82.7,7.3,96.4,46.6l82.3,236
		c13.7,39.3-7.3,82.7-46.6,96.4L515.2,178.2C475.9,191.9,432.5,170.9,418.8,131.6z"/>
	<path class="st26" d="M363.6,117.4l-82.3-236c-13.7-39.3,7.3-82.7,46.6-96.4l485.7-169.3c39.3-13.7,82.7,7.3,96.4,46.6l82.3,236
		c13.7,39.3-7.3,82.7-46.6,96.4L460,163.9C420.7,177.6,377.3,156.6,363.6,117.4z"/>
	<path class="st27" d="M308.5,103.1l-82.3-236.1c-13.7-39.3,7.3-82.7,46.6-96.4l485.7-169.3c39.3-13.7,82.7,7.3,96.4,46.6l82.3,236
		c13.7,39.3-7.3,82.7-46.6,96.4L404.8,149.6C365.5,163.3,322.2,142.4,308.5,103.1z"/>
	<path class="st28" d="M253.3,88.8l-82.3-236c-13.7-39.3,7.3-82.7,46.6-96.4l485.7-169.3c39.3-13.7,82.7,7.3,96.4,46.6l82.3,236
		c13.7,39.3-7.3,82.7-46.6,96.4L349.7,135.4C310.4,149.1,267,128.2,253.3,88.8z"/>
	<path class="st29" d="M198.1,74.6l-82.3-236c-13.7-39.3,7.3-82.7,46.6-96.4l485.7-169.3c39.3-13.7,82.7,7.3,96.4,46.6l82.3,236
		c13.7,39.3-7.3,82.7-46.6,96.4L294.5,121.1C255.2,134.8,211.8,113.8,198.1,74.6z"/>
	<path class="st30" d="M143,60.3l-82.3-236c-13.7-39.3,7.3-82.7,46.6-96.4l485.7-169.3c39.3-13.7,82.7,7.3,96.4,46.6l82.3,236
		c13.7,39.3-7.3,82.7-46.6,96.4L239.4,106.9C200.1,120.6,156.7,99.6,143,60.3z"/>
	<path class="st31" d="M87.8,46L5.6-190c-13.7-39.3,7.3-82.7,46.6-96.4l485.7-169.3c39.3-13.7,82.7,7.3,96.4,46.6l82.3,236
		c13.7,39.3-7.3,82.7-46.6,96.4L184.2,92.5C144.9,106.3,101.6,85.3,87.8,46z"/>
</g>
</svg>
