<?xml version="1.0" encoding="utf-8"?>
<!-- Generator: Adobe Illustrator 22.0.1, SVG Export Plug-In . SVG Version: 6.00 Build 0)  -->
<svg version="1.1" id="Слой_1" xmlns="http://www.w3.org/2000/svg" xmlns:xlink="http://www.w3.org/1999/xlink" x="0px" y="0px"
	 viewBox="0 0 956.6 1935.6" style="enable-background:new 0 0 956.6 1935.6;" xml:space="preserve">
<style type="text/css">
	.st0{fill:#EE1787;stroke:#F8F7F7;stroke-width:3;stroke-miterlimit:10;}
	.st1{fill:#E91C8B;stroke:#F8F7F7;stroke-width:2.9926;stroke-miterlimit:10;}
	.st2{fill:#E3248F;stroke:#F8F7F7;stroke-width:2.9851;stroke-miterlimit:10;}
	.st3{fill:#DD2B92;stroke:#F8F7F7;stroke-width:2.9777;stroke-miterlimit:10;}
	.st4{fill:#D73195;stroke:#F8F7F7;stroke-width:2.9702;stroke-miterlimit:10;}
	.st5{fill:#D13799;stroke:#F8F7F7;stroke-width:2.9628;stroke-miterlimit:10;}
	.st6{fill:#CB3E9C;stroke:#F8F7F7;stroke-width:2.9553;stroke-miterlimit:10;}
	.st7{fill:#C5449F;stroke:#F8F7F7;stroke-width:2.9479;stroke-miterlimit:10;}
	.st8{fill:#BF4AA2;stroke:#F8F7F7;stroke-width:2.9404;stroke-miterlimit:10;}
	.st9{fill:#B950A4;stroke:#F8F7F7;stroke-width:2.933;stroke-miterlimit:10;}
	.st10{fill:#B356A7;stroke:#F8F7F7;stroke-width:2.9256;stroke-miterlimit:10;}
	.st11{fill:#AD5CAA;stroke:#F8F7F7;stroke-width:2.9181;stroke-miterlimit:10;}
	.st12{fill:#A661AD;stroke:#F8F7F7;stroke-width:2.9107;stroke-miterlimit:10;}
	.st13{fill:#A066AF;stroke:#F8F7F7;stroke-width:2.9032;stroke-miterlimit:10;}
	.st14{fill:#9A6CB1;stroke:#F8F7F7;stroke-width:2.8958;stroke-miterlimit:10;}
	.st15{fill:#9371B4;stroke:#F8F7F7;stroke-width:2.8883;stroke-miterlimit:10;}
	.st16{fill:#8D76B6;stroke:#F8F7F7;stroke-width:2.8809;stroke-miterlimit:10;}
	.st17{fill:#867AB8;stroke:#F8F7F7;stroke-width:2.8734;stroke-miterlimit:10;}
	.st18{fill:#807FBA;stroke:#F8F7F7;stroke-width:2.866;stroke-miterlimit:10;}
	.st19{fill:#7983BC;stroke:#F8F7F7;stroke-width:2.8586;stroke-miterlimit:10;}
	.st20{fill:#7288BE;stroke:#F8F7F7;stroke-width:2.8511;stroke-miterlimit:10;}
	.st21{fill:#6B8CC0;stroke:#F8F7F7;stroke-width:2.8437;stroke-miterlimit:10;}
	.st22{fill:#6590C2;stroke:#F8F7F7;stroke-width:2.8362;stroke-miterlimit:10;}
	.st23{fill:#5E94C3;stroke:#F8F7F7;stroke-width:2.8288;stroke-miterlimit:10;}
	.st24{fill:#5797C5;stroke:#F8F7F7;stroke-width:2.8213;stroke-miterlimit:10;}
	.st25{fill:#509BC6;stroke:#F8F7F7;stroke-width:2.8139;stroke-miterlimit:10;}
	.st26{fill:#499EC8;stroke:#F8F7F7;stroke-width:2.8065;stroke-miterlimit:10;}
	.st27{fill:#42A2C9;stroke:#F8F7F7;stroke-width:2.799;stroke-miterlimit:10;}
	.st28{fill:#3BA5CA;stroke:#F8F7F7;stroke-width:2.7916;stroke-miterlimit:10;}
	.st29{fill:#33A8CB;stroke:#F8F7F7;stroke-width:2.7841;stroke-miterlimit:10;}
	.st30{fill:#2DAACC;stroke:#F8F7F7;stroke-width:2.7767;stroke-miterlimit:10;}
	.st31{fill:#26ADCD;stroke:#F8F7F7;stroke-width:2.7692;stroke-miterlimit:10;}
	.st32{fill:#2AAFCF;stroke:#F7F8F8;stroke-width:3;stroke-miterlimit:10;}
	.st33{fill:#32ABCE;stroke:#F7F8F8;stroke-width:3;stroke-miterlimit:10;}
	.st34{fill:#3AA8CC;stroke:#F8F8F8;stroke-width:3;stroke-miterlimit:10;}
	.st35{fill:#42A4CB;stroke:#F8F8F8;stroke-width:3;stroke-miterlimit:10;}
	.st36{fill:#4BA0C9;stroke:#F8F8F8;stroke-width:3;stroke-miterlimit:10;}
	.st37{fill:#539CC8;stroke:#F8F8F8;stroke-width:3;stroke-miterlimit:10;}
	.st38{fill:#5B98C6;stroke:#F8F8F8;stroke-width:3;stroke-miterlimit:10;}
	.st39{fill:#6393C4;stroke:#F8F8F8;stroke-width:3;stroke-miterlimit:10;}
	.st40{fill:#6B8FC2;stroke:#F8F8F8;stroke-width:3;stroke-miterlimit:10;}
	.st41{fill:#738AC0;stroke:#F8F8F8;stroke-width:3;stroke-miterlimit:10;}
	.st42{fill:#7B84BD;stroke:#F8F8F8;stroke-width:3;stroke-miterlimit:10;}
	.st43{fill:#827FBB;stroke:#F8F8F8;stroke-width:3;stroke-miterlimit:10;}
	.st44{fill:#8A79B8;stroke:#F8F8F8;stroke-width:3;stroke-miterlimit:10;}
	.st45{fill:#9274B6;stroke:#F8F8F8;stroke-width:3;stroke-miterlimit:10;}
	.st46{fill:#996EB3;stroke:#F8F7F8;stroke-width:3;stroke-miterlimit:10;}
	.st47{fill:#A167B0;stroke:#F8F7F8;stroke-width:3;stroke-miterlimit:10;}
	.st48{fill:#A861AD;stroke:#F8F7F8;stroke-width:3;stroke-miterlimit:10;}
	.st49{fill:#B05AAA;stroke:#F8F7F8;stroke-width:3;stroke-miterlimit:10;}
	.st50{fill:#B754A6;stroke:#F8F7F8;stroke-width:3;stroke-miterlimit:10;}
	.st51{fill:#BE4CA3;stroke:#F8F7F8;stroke-width:3;stroke-miterlimit:10;}
	.st52{fill:#C5459F;stroke:#F8F7F7;stroke-width:3;stroke-miterlimit:10;}
	.st53{fill:#CC3E9C;stroke:#F8F7F7;stroke-width:3;stroke-miterlimit:10;}
	.st54{fill:#D33698;stroke:#F8F7F7;stroke-width:3;stroke-miterlimit:10;}
	.st55{fill:#DA2E94;stroke:#F8F7F7;stroke-width:3;stroke-miterlimit:10;}
	.st56{fill:#E12790;stroke:#F8F7F7;stroke-width:3;stroke-miterlimit:10;}
	.st57{fill:#E81D8C;stroke:#F8F7F7;stroke-width:3;stroke-miterlimit:10;}
	.st58{fill:#E81D8C;stroke:#F8F7F7;stroke-width:2.9911;stroke-miterlimit:10;}
	.st59{fill:#E12790;stroke:#F8F7F7;stroke-width:2.9822;stroke-miterlimit:10;}
	.st60{fill:#DA2E94;stroke:#F8F7F7;stroke-width:2.9734;stroke-miterlimit:10;}
	.st61{fill:#D33698;stroke:#F8F7F7;stroke-width:2.9645;stroke-miterlimit:10;}
	.st62{fill:#CC3E9B;stroke:#F8F7F7;stroke-width:2.9556;stroke-miterlimit:10;}
	.st63{fill:#C4459F;stroke:#F8F7F7;stroke-width:2.9467;stroke-miterlimit:10;}
	.st64{fill:#BD4CA3;stroke:#F8F7F7;stroke-width:2.9379;stroke-miterlimit:10;}
	.st65{fill:#B653A6;stroke:#F8F7F7;stroke-width:2.929;stroke-miterlimit:10;}
	.st66{fill:#AE5AA9;stroke:#F8F7F7;stroke-width:2.9201;stroke-miterlimit:10;}
	.st67{fill:#A761AC;stroke:#F8F7F7;stroke-width:2.9112;stroke-miterlimit:10;}
	.st68{fill:#9F67AF;stroke:#F8F7F7;stroke-width:2.9024;stroke-miterlimit:10;}
	.st69{fill:#986DB2;stroke:#F8F7F7;stroke-width:2.8935;stroke-miterlimit:10;}
	.st70{fill:#9073B5;stroke:#F8F7F7;stroke-width:2.8846;stroke-miterlimit:10;}
	.st71{fill:#8879B8;stroke:#F8F7F7;stroke-width:2.8757;stroke-miterlimit:10;}
	.st72{fill:#807EBA;stroke:#F8F7F7;stroke-width:2.8669;stroke-miterlimit:10;}
	.st73{fill:#7884BC;stroke:#F8F7F7;stroke-width:2.858;stroke-miterlimit:10;}
	.st74{fill:#7089BF;stroke:#F8F7F7;stroke-width:2.8491;stroke-miterlimit:10;}
	.st75{fill:#688EC1;stroke:#F8F7F7;stroke-width:2.8402;stroke-miterlimit:10;}
	.st76{fill:#6092C3;stroke:#F8F7F7;stroke-width:2.8314;stroke-miterlimit:10;}
	.st77{fill:#5897C5;stroke:#F8F7F7;stroke-width:2.8225;stroke-miterlimit:10;}
	.st78{fill:#4F9BC6;stroke:#F8F7F7;stroke-width:2.8136;stroke-miterlimit:10;}
	.st79{fill:#479FC8;stroke:#F8F7F7;stroke-width:2.8047;stroke-miterlimit:10;}
	.st80{fill:#3FA3C9;stroke:#F8F7F7;stroke-width:2.7959;stroke-miterlimit:10;}
	.st81{fill:#36A6CB;stroke:#F8F7F7;stroke-width:2.787;stroke-miterlimit:10;}
	.st82{fill:#2EAACC;stroke:#F8F7F7;stroke-width:2.7781;stroke-miterlimit:10;}
</style>
<g>
	<path class="st0" d="M204.3,1904.1H87.9c-34.8,0-63.3-28.5-63.3-63.3v-276.6c0-34.8,28.5-63.3,63.3-63.3h116.5
		c34.8,0,63.3,28.5,63.3,63.3v276.6C267.6,1875.5,239.2,1904.1,204.3,1904.1z"/>
	<path class="st58" d="M229.6,1853.7H110.8c-35,0-63.7-28.6-63.7-63.7v-280.8c0-35,28.6-63.7,63.7-63.7h118.8
		c35,0,63.7,28.6,63.7,63.7v280.8C293.2,1825.1,264.6,1853.7,229.6,1853.7z"/>
	<path class="st59" d="M254.8,1803.3h-121c-35.2,0-63.9-28.8-63.9-63.9v-285c0-35.2,28.8-63.9,63.9-63.9h120.9
		c35.2,0,63.9,28.8,63.9,63.9v285C318.7,1774.6,290,1803.3,254.8,1803.3z"/>
	<path class="st60" d="M280,1753H156.8c-35.4,0-64.3-28.9-64.3-64.3v-289.2c0-35.4,28.9-64.3,64.3-64.3H280
		c35.4,0,64.3,28.9,64.3,64.3v289.2C344.3,1724.1,315.4,1753,280,1753z"/>
	<path class="st61" d="M305.2,1702.6H179.7c-35.6,0-64.6-29.1-64.6-64.6v-293.4c0-35.6,29.1-64.6,64.6-64.6h125.5
		c35.6,0,64.6,29.1,64.6,64.6V1638C369.8,1673.5,340.8,1702.6,305.2,1702.6z"/>
	<path class="st62" d="M330.4,1652.3H202.6c-35.8,0-65-29.2-65-65v-297.6c0-35.8,29.2-65,65-65h127.8c35.8,0,65,29.2,65,65v297.6
		C395.4,1623,366.2,1652.3,330.4,1652.3z"/>
	<path class="st63" d="M355.6,1602h-130c-36,0-65.4-29.4-65.4-65.4v-301.8c0-36,29.4-65.4,65.4-65.4h130c36,0,65.4,29.4,65.4,65.4
		v301.8C421,1572.6,391.6,1602,355.6,1602z"/>
	<path class="st64" d="M380.9,1551.5H248.6c-36.2,0-65.7-29.6-65.7-65.7v-306c0-36.2,29.6-65.7,65.7-65.7h132.3
		c36.2,0,65.7,29.6,65.7,65.7v306C446.5,1522,417,1551.5,380.9,1551.5z"/>
	<path class="st65" d="M406.1,1501.2H271.5c-36.3,0-66-29.7-66-66V1125c0-36.3,29.7-66,66-66h134.5c36.3,0,66,29.7,66,66v310.2
		C472.1,1471.5,442.4,1501.2,406.1,1501.2z"/>
	<path class="st66" d="M431.3,1450.9H294.5c-36.4,0-66.3-29.9-66.3-66.3v-314.4c0-36.4,29.9-66.3,66.3-66.3h136.8
		c36.4,0,66.3,29.9,66.3,66.3v314.4C497.6,1421,467.8,1450.9,431.3,1450.9z"/>
	<path class="st67" d="M456.5,1400.5H317.4c-36.6,0-66.7-30-66.7-66.7v-318.6c0-36.6,30-66.7,66.7-66.7h139.1
		c36.6,0,66.7,30,66.7,66.7v318.6C523.2,1370.5,493.2,1400.5,456.5,1400.5z"/>
	<path class="st68" d="M481.7,1350.2H340.4c-36.8,0-67-30.2-67-67V960.3c0-36.8,30.2-67,67-67h141.3c36.8,0,67,30.2,67,67v322.8
		C548.8,1320,518.6,1350.2,481.7,1350.2z"/>
	<path class="st69" d="M506.9,1299.8H363.4c-37,0-67.4-30.3-67.4-67.4v-327c0-37,30.3-67.4,67.4-67.4h143.6
		c37,0,67.4,30.3,67.4,67.4v327C574.3,1269.5,544.1,1299.8,506.9,1299.8z"/>
	<path class="st70" d="M532.3,1249.4H386.4c-37.2,0-67.7-30.4-67.7-67.7V850.6c0-37.2,30.4-67.7,67.7-67.7h145.9
		c37.2,0,67.7,30.4,67.7,67.7v331.1C599.9,1219,569.5,1249.4,532.3,1249.4z"/>
	<path class="st71" d="M557.5,1199.1H409.3c-37.4,0-68-30.6-68-68V795.7c0-37.4,30.6-68,68-68h148.2c37.4,0,68,30.6,68,68v335.4
		C625.4,1168.4,594.9,1199.1,557.5,1199.1z"/>
	<path class="st72" d="M582.7,1148.7H432.2c-37.6,0-68.3-30.7-68.3-68.3V740.8c0-37.6,30.7-68.3,68.3-68.3h150.4
		c37.6,0,68.3,30.7,68.3,68.3v339.6C651,1118,620.3,1148.7,582.7,1148.7z"/>
	<path class="st73" d="M607.9,1098.4H455.2c-37.8,0-68.7-30.9-68.7-68.7V685.9c0-37.8,30.9-68.7,68.7-68.7h152.6
		c37.8,0,68.7,30.9,68.7,68.7v343.8C676.5,1067.5,645.7,1098.4,607.9,1098.4z"/>
	<path class="st74" d="M633.1,1048H478.2c-38,0-69-31-69-69V631c0-38,31-69,69-69h154.9c38,0,69,31,69,69v348
		C702.1,1016.9,671.1,1048,633.1,1048z"/>
	<path class="st75" d="M658.3,997.6H501.1c-38.2,0-69.4-31.2-69.4-69.4V576.1c0-38.2,31.2-69.4,69.4-69.4h157.2
		c38.2,0,69.4,31.2,69.4,69.4v352.2C727.7,966.4,696.5,997.6,658.3,997.6z"/>
	<path class="st76" d="M683.6,947.3H524.1c-38.3,0-69.7-31.4-69.7-69.7V521.3c0-38.3,31.4-69.7,69.7-69.7h159.5
		c38.3,0,69.7,31.4,69.7,69.7v356.4C753.2,915.9,721.9,947.3,683.6,947.3z"/>
	<path class="st77" d="M708.8,897H547c-38.5,0-70-31.5-70-70V466.4c0-38.5,31.5-70,70-70h161.8c38.5,0,70,31.5,70,70v360.5
		C778.8,865.5,747.3,897,708.8,897z"/>
	<path class="st78" d="M734,846.6H570c-38.7,0-70.3-31.7-70.3-70.3V411.5c0-38.7,31.7-70.3,70.3-70.3h164
		c38.7,0,70.3,31.7,70.3,70.3v364.7C804.3,814.9,772.7,846.6,734,846.6z"/>
	<path class="st79" d="M759.2,796.2H593c-38.9,0-70.7-31.8-70.7-70.7V356.6c0-38.9,31.8-70.7,70.7-70.7h166.2
		c38.9,0,70.7,31.8,70.7,70.7v368.9C829.9,764.4,798.1,796.2,759.2,796.2z"/>
	<path class="st80" d="M784.4,745.9H615.9c-39.1,0-71-32-71-71V301.7c0-39.1,32-71,71-71h168.5c39.1,0,71,32,71,71v373.2
		C855.5,713.9,823.5,745.9,784.4,745.9z"/>
	<path class="st81" d="M809.6,695.5H638.8c-39.2,0-71.4-32.1-71.4-71.4V246.8c0-39.2,32.1-71.4,71.4-71.4h170.8
		c39.2,0,71.4,32.1,71.4,71.4v377.4C881,663.4,848.9,695.5,809.6,695.5z"/>
	<path class="st82" d="M834.9,645.2H661.8c-39.4,0-71.7-32.3-71.7-71.7V192c0-39.4,32.3-71.7,71.7-71.7h173.1
		c39.4,0,71.7,32.3,71.7,71.7v381.6C906.6,612.9,874.3,645.2,834.9,645.2z"/>
	<path class="st31" d="M860.1,594.8H684.8c-39.6,0-72-32.4-72-72V137c0-39.6,32.4-72,72-72h175.3c39.6,0,72,32.4,72,72v385.8
		C932.1,562.4,899.7,594.8,860.1,594.8z"/>
</g>
</svg>
