<?xml version="1.0" encoding="utf-8"?>
<!-- Generator: Adobe Illustrator 22.0.1, SVG Export Plug-In . SVG Version: 6.00 Build 0)  -->
<svg version="1.1" id="Слой_1" xmlns="http://www.w3.org/2000/svg" xmlns:xlink="http://www.w3.org/1999/xlink" x="0px" y="0px"
	 viewBox="0 0 271.1 251.5" style="enable-background:new 0 0 271.1 251.5;" xml:space="preserve">
<style type="text/css">
	.st0{stroke:#000000;stroke-width:2;stroke-miterlimit:10;}
	.st1{stroke:#000000;stroke-width:4;stroke-miterlimit:10;}
	.st2{fill:#010103;}
	.st3{fill:#B060AD;}
	.st4{fill:none;stroke:#F9F8F6;stroke-width:2;stroke-miterlimit:10;}
	.st5{fill:#F9F8F6;}
	.st6{font-family:'RubikMonoOne-Regular';}
	.st7{font-size:19.985px;}
</style>
<g>
	<path class="st4" d="M8,94.8C7.9,81.9,23,79.5,48.1,53.7C77,23.9,78.5,4.7,93,4.3c11.6-0.4,14.6,11.9,40.4,38.3
		c33.1,33.9,51.6,37.7,50.7,52.1c-0.7,12.3-14.4,13.1-41.3,38.6c-29.7,28.2-31.2,44.4-45.4,44.8c-13.2,0.4-15.9-13.6-46.6-41.8
		C21.9,109.7,8.1,107.1,8,94.8z"/>
	<path class="st4" d="M55.1,115.5c-0.1-12.9,15-15.2,40.1-41.1c28.9-29.8,30.4-49,44.9-49.4c11.6-0.4,14.6,11.9,40.4,38.3
		c33.1,33.9,51.6,37.7,50.7,52.1c-0.7,12.3-14.4,13.1-41.3,38.6c-29.7,28.2-31.2,44.4-45.4,44.8c-13.2,0.4-15.9-13.6-46.6-41.8
		C69,130.5,55.2,127.9,55.1,115.5z"/>
	<text transform="matrix(1 0 0 1 89.363 222.8823)"><tspan x="0" y="0" class="st5 st6 st7">Ментальное </tspan><tspan x="0" y="24" class="st5 st6 st7">казино</tspan></text>
	<ellipse class="st4" cx="72.8" cy="69.4" rx="14.4" ry="14.4"/>
	<ellipse class="st5" cx="156.1" cy="128.1" rx="14.4" ry="14.4"/>
</g>
</svg>
